<svg xmlns="http://www.w3.org/2000/svg" xmlns:xlink="http://www.w3.org/1999/xlink" version="1.1" x="0px" y="0px" viewBox="0 0 100 100" enable-background="new 0 0 100 100" xml:space="preserve"><path d="M94.639,51.14c0-7.056-8.252-14.221-20.25-14.767c-0.091-0.004-0.181-0.006-0.271-0.011l0.037-0.037l-5.776-0.469  c0.112-0.706,0.269-1.687,0.374-2.301c0.05-0.285,0.065-0.593,0.063-0.895c0.181-1.061-0.095-2.495-0.095-2.495l-0.016,0  c-0.363-3.917-7.06-7.041-15.266-7.041c-7.167,0-13.18,2.382-14.831,5.595l-2.15,2.961l-4.771-0.879  c-0.7-0.165-1.429-0.299-2.188-0.403h-0.003c-1.122-0.152-2.305-0.234-3.547-0.234c-10.116,0-20.839,5.169-20.824,11.761  c0.002,1.016,0.167,1.962,0.481,2.836c0.397,1.657,1.295,3.092,2.691,4.279c1.91,1.625,4.658,2.714,8.168,3.239l0.016,0.002  c0.169,0.025,0.339,0.049,0.51,0.07l4.327,0.605c-0.506,0.697-1.292,1.77-1.921,2.587c-0.517,0.67-1.322,2.242-1.991,3.627  c-0.49,0.77-0.882,1.605-1.17,2.512v0.002c-0.322,1.017-0.511,2.119-0.55,3.312c-0.063,1.944,0.168,3.723,0.642,5.339  c0.619,2.491,1.825,4.697,3.583,6.514c3.543,3.66,9.15,5.677,15.786,5.677c6.395,0,12.004-1.463,16.221-4.23  c1.927-0.994,4.881-3.328,8.006-8.79l0.088-0.152c0.531-0.917,2.614-8.115,2.859-8.969c0.41,0.111,2.466,0.669,3.816,0.939  c0.551,0.109,2.02,0.344,4.361,0.692c1.314,0.239,2.755,0.459,4.282,0.651c0.244,0.031,0.499,0.059,0.774,0.084l0.732,0.163  l-0.28-0.125c0.589,0.043,1.181,0.066,1.769,0.066c0.001,0,0.001,0,0.001,0c4.225,0,8.217-1.103,11.242-3.104  c2.382-1.577,3.941-3.585,4.544-5.792C94.452,53.067,94.639,52.124,94.639,51.14z M90.99,51.497c-0.054,0.57-0.196,1.117-0.42,1.64  c-2.343,3.899-9.489,6.018-18.365,4.491c-7.294-1.258-11.999-4.119-13.61-7.729c1.733,0.112,4.45,0.294,5.78,0.412  c0.782,0.068,1.644,0.164,2.451,0.278c-1.633,0.854-4.812,2.504-4.812,2.504s-0.063,0.189,0.391,0.297  c0.452,0.109,1.34,0.195,2.075,0c0.554-0.146,3.342-1.538,4.771-2.318c0.252,0.078,0.448,0.159,0.569,0.243  c0.216,0.152,0.391,0.313,0.516,0.477c0.394,1.067,1.831,1.813,3.498,1.813c1.988,0,3.605-1.069,3.605-2.383v-0.152  c0.077-0.189,0.122-0.39,0.122-0.596v-1.715c0-0.414-0.164-0.802-0.455-1.138c0.31-0.107,0.573-0.199,0.732-0.26  c0.627-0.238,5.945-2.961,6.421-3.285c0.279-0.191,0.647-0.404,0.869-0.649C88.963,45.803,91.232,48.921,90.99,51.497z   M58.271,49.039c1.369,0.088,4.7,0.305,6.216,0.44c1.071,0.095,2.444,0.253,3.569,0.457c-0.146,0.08-0.256,0.14-0.313,0.17  c-0.081,0.045-0.333,0.178-0.689,0.364c-1.155-0.17-2.287-0.276-2.666-0.311c-1.352-0.119-4.134-0.305-5.863-0.417  C58.428,49.511,58.343,49.277,58.271,49.039z M70.551,51.01c0.371,1.023,1.778,1.786,3.459,1.786c1.466,0,2.723-0.582,3.266-1.41  c-0.132,1.154-1.622,2.066-3.44,2.066c-1.611,0-2.993-0.709-3.36-1.724l-0.011-0.02c-0.135-0.18-0.321-0.354-0.557-0.518  c-0.11-0.078-0.273-0.15-0.474-0.221c0.365-0.202,0.613-0.352,0.66-0.403C70.312,50.729,70.455,50.883,70.551,51.01z M81.19,43.014  c-2.335,1.081-5.815,3.006-5.815,3.006s-0.541-0.043-1.146,0c-0.606,0.043-0.976,0.095-1.103,0.302  c-0.023,0.04-0.078,0.117-0.151,0.213c-1.11,0.221-1.993,0.787-2.348,1.509c-0.87-0.006-3.243-0.049-6.945-0.343  c-2.167-0.171-4.614-0.54-5.647-0.704c0.003-0.032,0.004-0.065,0.009-0.098c0.514-4.227,5.953-7.179,13.224-7.179  c1.164,0,2.376,0.074,3.604,0.219c3.103,0.366,5.927,1.247,8.318,2.417C82.654,42.453,81.988,42.645,81.19,43.014z M38.413,78.09  c-8.295-0.003-15.275-3.451-17.938-8.592c-0.598-1.351-0.893-2.784-0.86-4.262c0.099-4.537,4.84-9.499,10.799-12.227  c-0.015,0.294,0.042,0.614,0.247,0.887c0.453,0.604,5.293,6.385,5.595,6.837c0.031,0.046,0.104,0.148,0.211,0.297  c-0.956,0.493-1.569,1.259-1.569,2.119v2.218h0.001c0.004,0.082,0.015,0.162,0.03,0.241v0.401l0.003,0.076h0.004  c0.121,1.467,1.932,2.604,4.17,2.604c0.989,0,1.894-0.224,2.607-0.598c0.709,0.869,3.613,4.29,4.07,4.861  c0.484,0.604,1.754,2.329,2.662,1.996c0.907-0.332,0.907-1.482,0.695-2.298c-0.211-0.816-3.599-5.234-4.506-6.385  c-0.466-0.588-0.969-1.055-1.351-1.374v-1.087c0-0.227-0.043-0.448-0.123-0.661c-0.002-0.771-0.5-1.465-1.292-1.957  c0.544-1.265,2.809-5.955,3.27-6.384c0.292-0.272,0.675-0.488,0.953-0.624l5.062,1.056c0.504,0.104,1.027-0.001,1.452-0.292  c3.288,2.5,5.099,5.974,5.099,9.783c0,0.419-0.036,0.838-0.104,1.256C55.926,72.821,45.625,78.092,38.413,78.09z M40.411,31.909  c0-1.575,1.339-3.029,3.772-4.095c0.853-0.374,1.814-0.688,2.855-0.939c0.617,0.517,2.767,1.992,3.404,2.424  c0.729,0.494,1.706,1.219,1.706,1.219v0.001c-0.817,0.305-1.37,0.88-1.37,1.541v0.444c-0.053,0.14-0.082,0.286-0.082,0.436v1.432  l0.01,0.076h0.01c0.071,0.417,0.353,0.798,0.803,1.093c-0.062,0.182-0.14,0.386-0.244,0.619c-0.145,0.333-0.361,0.608-0.547,0.807  c-5.364-0.547-9.51-2.555-10.316-5.055C40.411,31.911,40.411,31.91,40.411,31.909z M66.544,32.121  c-0.591,1.55-2.411,2.895-5.01,3.797c-0.05-0.429-0.404-0.789-0.723-1.128c-0.352-0.376-3.003-2.37-3.729-2.768  c-0.338-0.185-0.746-0.433-1.092-0.648c-0.19-0.295-0.5-0.548-0.887-0.736c-0.103-0.178-0.215-0.393-0.227-0.494  c-0.026-0.188-0.236-0.351-0.519-0.375c-0.28-0.023-1.666-0.399-2.088-0.61c-0.313-0.157-2.79-1.73-4.051-2.535  c1.626-0.302,3.409-0.462,5.262-0.462c7.583,0,13.072,3.433,13.072,5.747C66.555,31.98,66.549,32.051,66.544,32.121z M52.335,37.084  c0.084-0.502,0.395-1.025,0.621-1.482c0.101-0.199,0.226-0.352,0.346-0.466c0.063,0.004,0.124,0.006,0.187,0.006  c1.217,0,2.241-0.526,2.584-1.248v0.243l0.003,0.027c0.003,0.025,0.006,0.049,0.006,0.074c0,0.026-0.003,0.05-0.006,0.075  l-0.004,0.05c-0.101,0.875-1.246,1.561-2.608,1.561c-0.057,0-0.111-0.003-0.166-0.005l-0.05-0.003l-0.023,0.023  c-0.146,0.142-0.267,0.304-0.355,0.483c-0.041,0.082-0.084,0.166-0.129,0.251c-0.069,0.134-0.139,0.273-0.207,0.415  C52.467,37.086,52.399,37.087,52.335,37.084z M52.873,36.744c0.045-0.086,0.09-0.171,0.13-0.253  c0.077-0.155,0.179-0.295,0.303-0.419c0.052,0.003,0.104,0.005,0.157,0.005c1.404,0,2.592-0.709,2.749-1.628h0.012l-0.001-0.092  l0.003-0.026c0.003-0.03,0.006-0.06,0.006-0.091c0-0.03-0.003-0.06-0.006-0.09v-0.161c0.61,0.405,2.96,1.958,3.728,2.399  c-1.849,0.464-3.98,0.727-6.28,0.727c-0.329,0-0.651-0.011-0.976-0.021C52.755,36.975,52.813,36.859,52.873,36.744z M50.846,33.749  c0.127,0.378,0.437,0.711,0.868,0.958c0,0.001,0,0.001,0,0.001c-0.02,0.174-0.063,0.397-0.15,0.685  c-0.414-0.283-0.663-0.642-0.708-1.029l-0.01-0.036V33.749z M39.029,67.99c0.835,0,1.613-0.163,2.264-0.44  c0.151,0.199,0.263,0.347,0.316,0.414c0,0,0,0,0,0c-0.691,0.358-1.563,0.575-2.503,0.575c-2.104,0-3.868-1.081-4.012-2.429  C35.627,67.2,37.185,67.99,39.029,67.99z M41.019,58.194c-0.428,0.639-1.054,1.388-1.619,2.027  c-0.002-0.002-0.453-0.123-0.967-0.486c-0.514-0.363-4.235-4.568-4.718-5.264s-1.451-1.656-1.785-1.947  c-0.04-0.033-0.088-0.064-0.142-0.092c1.982-0.769,4.064-1.285,6.132-1.452c0.616,1.057,2.122,1.937,2.75,2.067l2.51,0.523  C42.774,54.753,42.021,56.703,41.019,58.194z M52.651,54.79l-0.045-0.034l-0.045,0.034c-0.398,0.29-0.897,0.398-1.379,0.299  l-5.086-1.063l-0.025-0.005l-0.023,0.011c-0.289,0.14-0.699,0.368-1.013,0.661c-0.503,0.47-2.766,5.199-3.298,6.421  c-0.058-0.034-0.113-0.069-0.175-0.1c0.025-0.124,0.061-0.245,0.106-0.357c0.341-0.855,2.872-6.154,3.384-6.633  c0.313-0.293,0.726-0.521,1.002-0.654l5.123,1.072c0.526,0.109,1.044-0.021,1.448-0.314c3.283,2.478,5.181,5.925,5.206,9.866  C57.612,60.408,55.794,57.162,52.651,54.79z M66.683,31.63c-0.403-2.598-6.325-5.619-13.2-5.619c-1.968,0-3.808,0.174-5.456,0.49  c-0.331-0.211-0.541-0.345-0.541-0.345s-0.588-0.094-0.609,0c-0.023,0.094-0.141,0.329,0,0.563c0.003,0.006,0.015,0.018,0.023,0.026  c-3.749,0.919-6.268,2.627-6.599,4.696c-0.021-0.139-0.035-0.279-0.035-0.42c0-3.366,5.839-5.864,13.245-5.864  c7.401,0,13.24,3.353,13.24,5.864C66.751,31.227,66.725,31.43,66.683,31.63z M8.38,43.364c-0.493-4.237,5.67-8.376,14.334-9.628  c1.373-0.199,2.726-0.299,4.021-0.299c3.264,0,6.095,0.658,8.135,1.78c-0.21-0.004-0.364,0.01-0.364,0.01s-3.631,0.744-4.862,1.172  c-1.229,0.429-3.86,1.402-4.404,1.689c-0.543,0.285-1.087,0.085-1.887,0.199c-0.801,0.114-0.756,0.394-1.169,0.559  c-0.004,0.001-0.01,0.004-0.014,0.005c-0.502,0.169-0.931,0.42-1.239,0.727c-0.408,0.238-0.853,0.478-1.268,0.625  c-0.972,0.344-5.063,1.889-5.863,2.145c-0.8,0.258-3.576,1.23-4.062,1.516c-0.486,0.287-0.486,0.601,0,0.601  c0.486,0,3.832-1.087,4.862-1.374c1.03-0.285,5.23-1.772,5.79-2.001v1.24c0,0.211,0.049,0.415,0.136,0.607v0.2  c0,1.212,1.491,2.199,3.323,2.199c0.827,0,1.621-0.204,2.235-0.573l-0.032-0.053l0.033,0.051c0.34-0.204,0.606-0.445,0.792-0.718  c0.072-0.034,0.146-0.062,0.219-0.083c0.061-0.019,0.142-0.027,0.24-0.027c0.611,0,1.792,0.351,2.833,0.661  c0.498,0.148,0.967,0.288,1.355,0.385c0.64,0.16,1.356,0.311,1.944,0.428c-2.353,1.323-5.481,2.319-9.176,2.748  c-7.578,0.88-13.791-0.746-15.704-3.913C8.487,43.958,8.416,43.666,8.38,43.364z M38.225,39.485  c0.002,0.022,0.003,0.044,0.005,0.067c-0.112,1.307-0.788,2.593-1.941,3.761c0,0-5.321-0.979-6.073-1.184  c-0.731-0.2-2.716-0.624-3.079-0.868c-0.038-0.176-0.109-0.343-0.204-0.502v-0.007c0-0.029-0.005-0.057-0.007-0.086  c0.002-0.006,0.003-0.011,0.003-0.011l-0.003,0.01c-0.021-0.331-0.159-0.641-0.383-0.917c0.082-0.022,0.147-0.043,0.185-0.059  c0.543-0.228,3.004-1.03,3.976-1.344c0.919-0.297,4.89-1.617,5.31-2.389C37.279,36.924,38.067,38.126,38.225,39.485z M33.669,45.293  c-0.612-0.121-1.406-0.286-2.107-0.461c-0.385-0.096-0.853-0.235-1.348-0.383c-1.051-0.312-2.244-0.667-2.876-0.667  c-0.114,0-0.207,0.011-0.283,0.033c-0.087,0.026-0.175,0.06-0.26,0.102l-0.019,0.009l-0.011,0.018  c-0.173,0.261-0.427,0.493-0.755,0.689l-0.002,0.001c-0.591,0.355-1.357,0.552-2.157,0.552c-1.71,0-3.104-0.879-3.166-1.974  c0.514,0.741,1.654,1.258,2.978,1.258c0.855,0,1.63-0.216,2.212-0.567l-0.002,0.004c0,0,0.002-0.003,0.004-0.005  c0.332-0.2,0.601-0.444,0.785-0.718c0.077-0.037,0.161-0.071,0.251-0.097c0.696-0.206,3.131,0.684,4.5,1.025  c1.366,0.342,3.107,0.649,3.11,0.649C34.252,44.944,33.966,45.121,33.669,45.293z M22.508,32.786  c8.787-1.27,15.216,1.612,15.709,5.857c0.003,0.031,0.005,0.061,0.008,0.092c-0.321-1.106-1.07-2.119-2.181-2.959  c-0.041-0.339-0.414-0.478-0.786-0.53c-0.125-0.075-0.252-0.148-0.383-0.219c-2.112-1.14-4.927-1.742-8.141-1.742  c-1.302,0-2.662,0.101-4.042,0.3C13.946,34.85,7.728,39.06,8.23,43.381c0.007,0.065,0.02,0.129,0.03,0.192  c-0.125-0.322-0.214-0.657-0.255-1.006C7.512,38.322,13.606,34.071,22.508,32.786z M37.876,50.15  c0.573,1.027,2.077,1.947,2.742,2.087l2.806,0.584c-0.047,0.152-0.113,0.36-0.196,0.605L40.7,52.899  c-0.597-0.124-2.103-1.015-2.673-2.036l-0.023-0.042l-0.048,0.005c-2.107,0.165-4.281,0.691-6.385,1.52  c-0.4-0.125-0.909-0.143-0.909-0.143c-0.083,0.109-0.184,0.345-0.228,0.624c-1.776,0.803-3.483,1.817-5.031,3.017  c-3.707,2.87-5.871,6.293-5.938,9.39c-0.015,0.698,0.042,1.387,0.167,2.062c-0.221-0.87-0.331-1.774-0.31-2.708  C19.462,58.067,28.865,50.857,37.876,50.15z M85.22,43.313c0.095-0.14,0.135-0.288,0.079-0.449  c-0.174-0.498-0.542-0.519-0.542-0.519s-0.45-0.147-1.318-0.029c-2.444-1.226-5.35-2.149-8.549-2.527  c-1.234-0.146-2.452-0.219-3.622-0.219c-6.976,0-12.282,2.709-13.252,6.666c0.004-0.042,0.006-0.083,0.01-0.125  c0.573-4.703,7.26-8.232,17.035-7.077S91.78,46.3,91.362,50.758c-0.046,0.493-0.157,0.967-0.328,1.422  c0.048-0.219,0.085-0.441,0.106-0.668C91.387,48.892,89.095,45.723,85.22,43.313z M17.012,52.203  c-0.171-0.022-0.341-0.046-0.509-0.07l-0.016-0.003c-5.403-0.807-8.949-2.952-10.323-6.155c1.626,2.85,5.109,4.747,10.072,5.488  v0.001l0.016,0.002c0.17,0.024,0.34,0.049,0.514,0.071l5.068,0.708c0,0-0.163,0.227-0.415,0.574L17.012,52.203z M89.486,59.626  c-3.002,1.985-6.965,3.08-11.16,3.08c-0.73,0-1.47-0.036-2.198-0.104l-0.006-0.001c-0.277-0.025-0.529-0.053-0.772-0.083  c-1.524-0.192-2.963-0.411-4.275-0.651c-2.343-0.35-3.81-0.582-4.358-0.692c-1.491-0.298-3.852-0.948-3.876-0.955l-0.072-0.021  l-0.021,0.072c-0.022,0.08-2.321,8.067-2.865,9.007l-0.088,0.153c-3.106,5.429-6.035,7.745-7.945,8.73l-0.014,0.007  c-4.191,2.753-9.771,4.207-16.137,4.207c-6.595,0-12.162-2.001-15.677-5.631c-1.026-1.061-1.855-2.234-2.491-3.511  c3.179,5.745,10.103,8.692,18.064,8.692c6.771,0,12.325-1.643,16.296-4.25c0.002,0,0.006-0.002,0.007-0.002  c4.433-2.288,7.563-8.013,8.122-8.979c0.559-0.964,2.895-9.089,2.895-9.089s2.386,0.661,3.91,0.966  c0.655,0.131,2.501,0.413,4.393,0.696c1.321,0.241,2.753,0.461,4.309,0.657c0.261,0.033,0.52,0.058,0.78,0.083  c0.003,0,0.005,0,0.007,0c7.353,0.685,14.305-2.093,17.068-6.569C92.59,57.013,91.274,58.441,89.486,59.626z"></path></svg>